<?xml version="1.0" standalone="no"?>
<!DOCTYPE svg PUBLIC "-//W3C//DTD SVG 20010904//EN"
 "http://www.w3.org/TR/2001/REC-SVG-20010904/DTD/svg10.dtd">
<svg version="1.0" xmlns="http://www.w3.org/2000/svg"
 width="638.000000pt" height="564.000000pt" viewBox="0 0 638.000000 564.000000"
 preserveAspectRatio="xMidYMid meet">
<metadata>
Created by potrace 1.16, written by Peter Selinger 2001-2019
</metadata>
<g transform="translate(0.000000,564.000000) scale(0.100000,-0.100000)"
fill="#FFD700" stroke="none">
<path d="M2770 1420 c249 -454 506 -923 571 -1042 l120 -217 45 -193 c25 -106
146 -625 270 -1153 124 -528 227 -969 230 -980 4 -14 3 -17 -4 -10 -6 6 -174
307 -373 670 -199 363 -448 818 -554 1010 -106 193 -201 368 -212 390 -11 22
-57 198 -103 390 -370 1581 -460 1967 -460 1978 0 7 4 6 9 -3 5 -8 212 -386
461 -840z m657 785 c556 -73 1056 -346 1404 -766 275 -331 442 -712 500 -1139
20 -140 17 -450 -5 -590 -107 -691 -508 -1263 -1131 -1614 -55 -31 -103 -56
-106 -56 -6 0 -59 212 -59 235 0 6 28 26 63 44 341 186 642 504 812 856 135
279 195 540 195 850 0 322 -64 594 -207 880 -102 205 -222 365 -400 535 -126
121 -229 197 -385 286 -401 229 -883 306 -1333 212 -55 -11 -108 -21 -119 -22
-24 -1 -142 205 -123 215 27 15 239 61 337 73 147 19 414 19 557 1z m-1167
-313 l27 -113 -21 -13 c-11 -7 -60 -37 -109 -65 -128 -76 -238 -161 -351 -270
-290 -280 -477 -619 -562 -1016 -35 -164 -45 -482 -20 -655 33 -225 94 -417
192 -610 301 -592 860 -980 1528 -1061 153 -18 432 -6 582 25 67 14 128 28
137 32 21 8 143 -207 123 -218 -26 -15 -222 -58 -336 -75 -157 -22 -437 -22
-595 1 -488 70 -917 287 -1262 638 -123 125 -174 188 -270 331 -380 568 -467
1317 -228 1958 160 429 442 794 813 1051 104 72 294 179 311 176 10 -2 24 -42
41 -116z m1163 -18 c312 -44 626 -179 882 -379 98 -77 261 -244 338 -346 280
-372 415 -857 366 -1307 -64 -595 -397 -1115 -906 -1419 -51 -31 -95 -54 -97
-52 -2 2 -7 18 -10 35 -6 27 -3 32 21 43 15 7 80 47 143 89 160 105 374 320
482 482 137 206 231 432 280 672 20 99 23 142 22 338 0 204 -2 236 -27 351
-137 648 -591 1158 -1210 1360 -262 86 -588 110 -842 64 -164 -30 -153 -30
-166 -1 -7 14 -10 28 -8 30 2 3 51 14 109 26 197 40 401 45 623 14z m-178
-673 c47 -287 85 -527 83 -532 -4 -11 -262 457 -266 483 -2 10 15 132 38 271
46 286 50 310 56 305 2 -2 42 -239 89 -527z m-930 458 c4 -17 5 -32 3 -34 -1
-1 -39 -24 -83 -50 -226 -133 -425 -322 -576 -548 -656 -980 -207 -2314 908
-2701 181 -62 325 -88 525 -94 182 -5 310 5 442 35 66 15 70 14 83 -3 23 -32
14 -40 -59 -57 -151 -35 -225 -42 -418 -41 -165 1 -216 5 -330 27 -666 128
-1206 599 -1425 1242 -74 218 -100 407 -92 665 9 274 60 483 178 730 170 355
415 615 789 838 46 27 47 27 55 -9z m1478 -1085 c-125 -175 -232 -317 -237
-317 -13 1 -129 213 -121 221 15 16 580 419 583 417 2 -2 -99 -146 -225 -321z
m-1375 231 l118 -84 27 -122 c15 -68 26 -124 24 -125 -2 -2 -276 376 -290 402
-4 8 -6 14 -3 14 3 0 59 -38 124 -85z m1410 -605 c130 -21 408 -66 617 -100
209 -33 388 -64 398 -68 12 -5 -31 -16 -120 -30 -537 -89 -1057 -172 -1059
-170 -1 2 -22 86 -47 188 -24 102 -48 193 -52 203 -10 23 -11 23 263 -23z
m-1174 13 c2 -10 21 -89 41 -177 34 -150 41 -166 111 -293 41 -74 76 -139 77
-145 2 -10 -585 -439 -592 -432 -2 2 23 41 56 86 33 46 135 188 228 316 92
128 164 237 159 241 -5 4 -296 54 -647 112 -375 61 -631 106 -620 111 10 4
270 48 578 98 308 50 565 93 570 95 22 8 34 4 39 -12z m1223 -848 c71 -99 133
-186 137 -194 11 -18 4 -13 -127 79 l-106 75 -25 110 c-29 121 -31 134 -17
120 5 -6 67 -91 138 -190z m-821 -77 c43 -79 105 -194 139 -256 l61 -112 -47
-291 c-27 -160 -50 -293 -53 -296 -6 -6 -9 11 -81 452 -36 220 -74 453 -85
518 -11 65 -20 120 -20 123 0 16 18 -13 86 -138z"/>
<path d="M2753 3900 c3 -8 57 -181 122 -385 166 -525 153 -468 120 -507 -40
-47 -55 -89 -55 -153 0 -114 77 -199 193 -214 l48 -6 186 -412 c103 -227 188
-412 189 -410 1 1 -59 197 -133 435 l-136 433 25 27 c47 50 60 89 56 163 -3
56 -9 76 -34 111 -36 51 -92 85 -155 94 l-45 6 -149 327 c-161 352 -238 515
-232 491z"/>
</g>
</svg>
